<?xml version="1.0" standalone="no"?>
<!DOCTYPE svg PUBLIC "-//W3C//DTD SVG 20010904//EN"
 "http://www.w3.org/TR/2001/REC-SVG-20010904/DTD/svg10.dtd">
<svg version="1.0" xmlns="http://www.w3.org/2000/svg"
 width="512.000000pt" height="512.000000pt" viewBox="0 0 512.000000 512.000000"
 preserveAspectRatio="xMidYMid meet">
<metadata>
Created by potrace 1.14, written by Peter Selinger 2001-2017
</metadata>
<g transform="translate(0.000000,512.000000) scale(0.100000,-0.100000)"
fill="#000000" stroke="none">
<path d="M973 4146 c-17 -8 -39 -29 -48 -46 -17 -32 -20 -51 -30 -160 -4 -36
-8 -85 -11 -110 -2 -25 -6 -76 -9 -115 -3 -38 -7 -90 -10 -115 -2 -25 -7 -81
-10 -125 -4 -44 -9 -88 -11 -97 -5 -17 81 -18 1714 -18 l1720 0 -3 63 c-2 34
-6 120 -10 191 -3 72 -12 144 -20 162 -27 66 12 63 -882 64 -444 1 -826 3
-848 7 -84 12 -176 82 -306 236 -67 79 -38 75 -655 76 -451 1 -555 -2 -581
-13z"/>
<path d="M725 3185 c-86 -31 -94 -71 -71 -355 3 -30 8 -95 11 -145 4 -49 8
-110 10 -135 2 -25 6 -88 9 -140 4 -52 8 -120 11 -150 2 -30 7 -91 10 -135 3
-44 7 -111 10 -150 3 -38 7 -97 10 -129 3 -33 7 -96 10 -140 2 -45 6 -110 9
-146 8 -93 16 -202 21 -300 10 -173 33 -239 95 -275 35 -20 51 -20 1683 -23
1190 -2 1660 1 1690 9 55 15 103 66 113 121 10 54 10 60 18 193 4 61 9 130 11
155 2 25 7 92 10 150 3 58 8 130 10 160 2 30 7 98 10 150 3 52 7 120 10 150 3
30 7 102 10 160 4 58 8 125 10 150 2 25 7 95 10 155 4 61 8 130 10 155 32 420
28 480 -34 511 -40 21 -3638 25 -3696 4z"/>
</g>
</svg>
